<svg xmlns="http://www.w3.org/2000/svg" version="1.1" xmlns:xlink="http://www.w3.org/1999/xlink" xmlns:svgjs="http://svgjs.dev/svgjs" width="1500" height="935" viewBox="0 0 1500 935"><g transform="matrix(1,0,0,1,-0.9090909090909918,0.3785425101214628)"><svg viewBox="0 0 396 247" data-background-color="#ffffff" preserveAspectRatio="xMidYMid meet" height="935" width="1500" xmlns="http://www.w3.org/2000/svg" xmlns:xlink="http://www.w3.org/1999/xlink"><g id="tight-bounds" transform="matrix(1,0,0,1,0.2400000000000091,-0.09999999999999432)"><svg viewBox="0 0 395.52 247.2" height="247.2" width="395.52"><g><svg></svg></g><g><svg viewBox="0 0 395.52 247.2" height="247.2" width="395.52"><g transform="matrix(1,0,0,1,141.10693122028528,47.215199999999996)"><svg viewBox="0 0 113.30613755942946 152.7696" height="152.7696" width="113.30613755942946"><g><svg viewBox="0 0 113.30613755942946 152.7696" height="152.7696" width="113.30613755942946"><g><svg viewBox="0 0 113.30613755942946 152.7696" height="152.7696" width="113.30613755942946"><g><svg viewBox="0 0 113.30613755942946 152.7696" height="152.7696" width="113.30613755942946"><g id="textblocktransform"><svg viewBox="0 0 113.30613755942946 152.7696" height="152.7696" width="113.30613755942946" id="textblock"><g><svg viewBox="0 0 113.30613755942946 152.7696" height="152.7696" width="113.30613755942946"><g transform="matrix(1,0,0,1,0,0)"><svg width="113.30613755942946" viewBox="2.7 -31.05 23.400000000000002 31.55" height="152.7696" data-palette-color="#332885"><path d="M11.2-31.05L11.2 0 2.7 0 2.7-31.05 11.2-31.05ZM17.7-31.05L26.1-31.05 26.1-6.25Q26.1-2.4 24.35-0.95 22.6 0.5 17.9 0.5L17.9 0.5 15.35 0.5 14.7-6.3 16.4-6.3Q17.25-6.3 17.47-6.53 17.7-6.75 17.7-7.5L17.7-7.5 17.7-31.05Z" opacity="1" transform="matrix(1,0,0,1,0,0)" fill="#332885" class="wordmark-text-0" data-fill-palette-color="primary" id="text-0"></path></svg></g></svg></g></svg></g></svg></g></svg></g></svg></g></svg></g><path d="M72.112 41.215L72.112 0 319.312 0 319.312 247.2 72.112 247.2 72.112 205.985 85.889 205.985 85.889 233.423 305.535 233.423 305.535 13.777 85.889 13.777 85.889 41.215Z" fill="#332885" stroke="transparent" data-fill-palette-color="tertiary"></path></svg></g><defs></defs></svg><rect width="395.52" height="247.2" fill="none" stroke="none" visibility="hidden"></rect></g></svg></g></svg>